<svg width="225" height="166" viewBox="0 0 225 166" fill="none" xmlns="http://www.w3.org/2000/svg">
<path d="M184.16 45.1746C183.226 45.1746 182.291 45.2094 181.357 45.2789C178.207 26.9658 162.321 12.9964 143.147 12.9964C134.391 12.9964 126.327 15.9154 119.82 20.8151C112.794 8.37468 99.5039 0 84.2755 0C61.7097 0 43.4356 18.3479 43.4356 41.0047C43.4356 42.4294 43.5049 43.8541 43.6433 45.2441C42.7088 45.1746 41.7743 45.1399 40.8399 45.1399C18.2741 45.1399 0 63.4877 0 86.1446C0 108.801 18.2741 127.149 40.8399 127.149H184.126C206.691 127.149 224.965 108.801 224.965 86.1446C224.965 63.4877 206.726 45.1746 184.16 45.1746Z" fill="#AAD0E2"/>
<path d="M184.16 45.1746C183.226 45.1746 182.291 45.2094 181.357 45.2789C178.207 26.9658 162.321 12.9964 143.147 12.9964C134.391 12.9964 126.327 15.9154 119.82 20.8151C112.794 8.37468 99.5039 0 84.2755 0C61.7097 0 43.4356 18.3479 43.4356 41.0047C43.4356 42.4294 43.5049 43.8541 43.6433 45.2441C42.7088 45.1746 41.7743 45.1399 40.8399 45.1399C18.2741 45.1399 0 63.4877 0 86.1446C0 108.801 18.2741 127.149 40.8399 127.149H184.126C206.691 127.149 224.965 108.801 224.965 86.1446C224.965 63.4877 206.726 45.1746 184.16 45.1746Z" fill="url(#paint0_linear_1_449)"/>
<path d="M100.854 9.10408C97.0812 7.88784 93.0318 7.2276 88.844 7.2276C67.0743 7.2276 49.4578 24.95 49.4578 46.7728C49.4578 48.1628 49.527 49.518 49.6654 50.8733C48.7656 50.8038 47.8657 50.769 46.9658 50.769C25.1961 50.769 7.57959 68.4914 7.57959 90.3142C7.57959 97.5074 9.48314 104.214 12.8057 110.017C11.3175 92.156 13.9824 58.1012 56.5874 58.9352C56.1721 47.3288 58.2141 10.7721 100.854 9.10408Z" fill="#B298FF"/>
<path d="M60.6022 127.149H184.16C206.726 127.149 225 108.801 225 86.1446C225 81.3144 224.169 76.6579 222.612 72.3489C195.789 125.481 104.972 120.79 60.6022 127.149Z" fill="#6B48D0"/>
<path d="M145.258 117.037H136.225V86.9785C136.225 73.8779 125.6 63.2097 112.552 63.2097C99.504 63.2097 88.8787 73.8779 88.8787 86.9785V117.037H79.8455V86.9785C79.8455 68.8392 94.5201 54.1053 112.587 54.1053C130.653 54.1053 145.328 68.8392 145.328 86.9785V117.037H145.258Z" fill="url(#paint1_linear_1_449)"/>
<path d="M159.103 162.49C159.103 164.436 157.545 165.999 155.607 165.999H69.4279C67.4897 165.999 65.9323 164.436 65.9323 162.49V106.299C65.9323 104.353 67.4897 102.79 69.4279 102.79H155.572C157.51 102.79 159.068 104.353 159.068 106.299V162.49H159.103Z" fill="url(#paint2_linear_1_449)"/>
<path d="M136.191 102.754C136.191 102.754 143.978 93.0244 144.947 82.5305V102.754H136.191Z" fill="#5C5A5A"/>
<path d="M159.102 162.49V128.053C130.722 152.169 89.7785 161.239 66.5897 164.54C67.2127 165.409 68.251 165.999 69.4278 165.999H155.572C157.545 166.034 159.102 164.436 159.102 162.49Z" fill="url(#paint3_linear_1_449)"/>
<path d="M120.201 124.856C120.201 120.582 116.74 117.141 112.517 117.141C108.26 117.141 104.834 120.616 104.834 124.856C104.834 127.392 106.08 129.651 107.949 131.076L105.491 148.555H119.543L117.086 131.076C118.989 129.651 120.201 127.427 120.201 124.856Z" fill="#72716F"/>
<path d="M105.492 148.554C105.492 148.554 116.463 144.35 117.294 132.396L119.578 148.554H105.492Z" fill="#5C5A5A"/>
<defs>
<linearGradient id="paint0_linear_1_449" x1="57.5" y1="11" x2="192.5" y2="127" gradientUnits="userSpaceOnUse">
<stop stop-color="#AE93FF"/>
<stop offset="1" stop-color="#6A42DE"/>
</linearGradient>
<linearGradient id="paint1_linear_1_449" x1="112.587" y1="54.1053" x2="112.587" y2="117.037" gradientUnits="userSpaceOnUse">
<stop stop-color="#72716F"/>
<stop offset="1" stop-color="#5B5953"/>
</linearGradient>
<linearGradient id="paint2_linear_1_449" x1="76" y1="107.5" x2="148" y2="162.5" gradientUnits="userSpaceOnUse">
<stop stop-color="#FFEA97"/>
<stop offset="1" stop-color="#EBC428"/>
</linearGradient>
<linearGradient id="paint3_linear_1_449" x1="112.846" y1="128.053" x2="112.846" y2="166" gradientUnits="userSpaceOnUse">
<stop stop-color="#EAB531"/>
<stop offset="1" stop-color="#EAB531" stop-opacity="0"/>
</linearGradient>
</defs>
</svg>
